<?xml version="1.0" encoding="utf-8"?>
<!-- Generator: Adobe Illustrator 19.2.1, SVG Export Plug-In . SVG Version: 6.00 Build 0)  -->
<!DOCTYPE svg PUBLIC "-//W3C//DTD SVG 1.1//EN" "http://www.w3.org/Graphics/SVG/1.1/DTD/svg11.dtd">
<svg version="1.1" id="Layer_1" xmlns="http://www.w3.org/2000/svg" xmlns:xlink="http://www.w3.org/1999/xlink" x="0px" y="0px"
	 viewBox="0 0 543.3 182" style="enable-background:new 0 0 543.3 182;" xml:space="preserve">
<style type="text/css">
	.st0{fill:#8597A0;}
  .st2{stroke:#ffffff;fill:#ffffff;}
</style>
<path class="st0" d="M0,66"/>
<path class="st2" d="M125.9,155.5V106H65.8v49.4H42.8V33.2h23.1v51.5h60.1V33.2h22.9v122.3H125.9z"/>
<path class="st2" d="M228.1,119.3h-34.6v36h-23.1V33c19.2,0,38.4-0.2,57.6-0.2C287.9,32.8,288.1,119.3,228.1,119.3z M193.5,98.2h34.6
	c29.5,0,29.3-43.3,0-43.3h-34.6V98.2z"/>
<path class="st2" d="M349.2,136.4c-28.9-0.8-40.1-21.5-40.3-41.3c-0.2-19.6,11.6-40.7,38.7-42.3h16.2l0-22.1h-16.4v0
	c-41.8,1.7-61.5,33.3-61.3,64.4c0.2,31.1,18.6,61.7,62,63l0,0.1h16v-21.7H349.2z"/>
<path class="st2" d="M364.2,85.1v-25h20.3v25h25v18.6h-25v25.1h-20.3v-25.1h-24.6V85.1H364.2z"/>
<path class="st0" d="M521.5,96.4c-4.5-9.6-13.7-17.5-23.8-22.9l0,0c0-17.2-8-31.8-29.6-37.6c-9.7-2.6-19.2-1.7-27.3,0.7
	c-5-6.1-11.3-9.7-19.4-12.2c-13.6-4.2-27.3-0.2-36.9,4.2v24.1c4.6-3.4,18.1-10.3,29.3-6.9c6.8,2.1,13.7,7.3,17.4,18.3l0,0v0
	c0.1-0.1,0.2-0.2,0.4-0.2l5.5-3.2c6.3-3.1,15.4-5.9,23.4-3.4c6.8,2.1,13.7,7.3,17.4,18.3l0.1,0c1.4,4,2.2,8,2.5,11.9
	c7.4,1.9,19.5,10.4,23.2,19.7c2,5,1.7,8,0.9,12.8c-2.5,15.4-18.5,16-30.9,16h-87.3v21h87.3c19.3,0,50.3,0.2,51.8-37.8
	C526,110.2,524.8,103.6,521.5,96.4z"/>
</svg>
