<?xml version="1.0" encoding="UTF-8" standalone="no"?>
<svg
   xmlns:dc="http://purl.org/dc/elements/1.1/"
   xmlns:cc="http://creativecommons.org/ns#"
   xmlns:rdf="http://www.w3.org/1999/02/22-rdf-syntax-ns#"
   xmlns:svg="http://www.w3.org/2000/svg"
   xmlns="http://www.w3.org/2000/svg"
   xmlns:sodipodi="http://sodipodi.sourceforge.net/DTD/sodipodi-0.dtd"
   xmlns:inkscape="http://www.inkscape.org/namespaces/inkscape"
   version="1.1"
   id="Layer_1"
   x="0px"
   y="0px"
   viewBox="0 0 462.00001 153"
   xml:space="preserve"
   inkscape:version="0.91+devel+osxmenu r12896"
   sodipodi:docname="logo.svg"
   width="462"
   height="153"><style>
	.st1{fill:#8597a1;}
  .textColor{fill:#EDEDED;}
</style><path
     class="st1"
     d="m 350.8718,35.245418 c -13.39896,0.314188 -22.82272,15.216676 -19.32422,27.583988 0.54746,6.12937 -4.74835,12.09883 -11.13281,10.80664 -15.60825,0.93083 -28.87357,-4.16893 -42.99024,4.720699 -12.19235,10.39834 -8.91632,35.402885 8.18555,38.427735 15.73167,2.61541 27.85154,-0.29919 43.8789,0.79102 27.66783,-0.1599 55.56873,1.49635 82.9961,-1.43359 17.16447,-7.03343 16.24554,-36.677025 -2.15235,-41.505864 -11.74343,-3.39414 -24.04537,0.33954 -35.96093,-1.78516 3.07592,-11.38881 3.11182,-27.319296 -8.27344,-34.332031 -4.62599,-2.649452 -9.97383,-3.381834 -15.22656,-3.273437 z"
     id="path15"
     inkscape:connector-curvature="0"
     sodipodi:nodetypes="ccccccccccc" /><path
     class="textColor"
     d="m 82.380391,152.3005 0,-60.700005 -61.4,0 0,60.700005 -20.60000048,0 0,-140.300004 20.60000048,0 0,60.6 61.4,0 0,-60.6 20.499999,0 0,140.300004 z"
     id="path13"
     inkscape:connector-curvature="0"
     sodipodi:nodetypes="ccccccccccccc" /><path
     class="textColor"
     d="m 179.78039,118.0005 -30.9,0 0,34.2 -20.6,0 0,-111.400004 c 17.2,0 34.4,-0.2 51.5,-0.2 53.4,0.1 53.6,77.400004 0,77.400004 z m -30.9,-18.900004 30.9,0 c 26.4,0 26.2,-38.7 0,-38.7 l -30.9,0 z"
     id="path18"
     inkscape:connector-curvature="0"
     sodipodi:nodetypes="scccccscsscc" /><path
     class="st1"
     d="m 353.31906,0.3001046 c -21.8794,0.154081 -46.60666,7.224849 -55.39122,29.5859384 l 29.77794,0 c 7.16044,-9.25582 14.53281,-9.223938 25.61328,-9.285156 18.3,-0.2 38,11.199609 38,37.599609 0,0.2 12.5,0.0996 12.5,0.0996 26.4,0 37.79961,19.699999 37.59961,37.999999 -0.2,18.100005 -10.59961,37.000005 -37.59961,37.000005 l -91.80078,0 12.90039,19.40039 79.5,0 c 40.1,-0.3 57.09922,-28.10039 57.19922,-56.400395 0.2,-27.499999 -16.99844,-55.3 -53.39844,-57.5 -7.8,-26.199999 -31.50039,-38.6000004 -54.90039,-38.4999904 z"
     id="path17"
     inkscape:connector-curvature="0"
     sodipodi:nodetypes="ccccsccscccccc" /><!-- <circle fill="white" cx="345.2" cy="140.4" r="11.2"/>
<circle fill="white" cx="389.4" cy="140.4" r="11.2"/>
<circle fill="white" cx="433.7" cy="140.4" r="11.2"/> --><path
     class="textColor"
     d="m 298.58039,133.3005 -10,0 c -27,0 -37.5,-18.9 -37.6,-37.000005 -0.2,-18.3 11.2,-37.999999 37.6,-37.999999 l 0,0 24.5,0 c 0,-2.94256 4.44644,-15.313679 6.6,-19.6 l -31.1,0 0,0 0,0 0,0 0,0 c -39.5,0 -58.1,29 -57.9,57.599999 0.2,28.300005 17.1,56.000005 57.2,56.400005 l 0,0 23.9,0 z"
     id="path19"
     inkscape:connector-curvature="0"
     sodipodi:nodetypes="csccccccccccccccc" /></svg>
